<?xml version="1.0" encoding="utf-8"?>
<!-- Generator: Adobe Illustrator 17.1.0, SVG Export Plug-In . SVG Version: 6.00 Build 0)  -->
<!DOCTYPE svg PUBLIC "-//W3C//DTD SVG 1.1//EN" "http://www.w3.org/Graphics/SVG/1.1/DTD/svg11.dtd">
<svg version="1.1" id="Layer_1" xmlns="http://www.w3.org/2000/svg" xmlns:xlink="http://www.w3.org/1999/xlink" x="0px" y="0px"
	 viewBox="0 0 215.1 477.7" enable-background="new 0 0 215.1 477.7" xml:space="preserve">
<rect y="432.7" opacity="0.13" fill="#C3996B" enable-background="new    " width="205.9" height="45"/>
<g>
	<path fill="#231F20" d="M0.7,105h14.7V2.9H0.7V0h29.2C45,0,54.5,0,63.5,2.9c15.1,4.9,18.8,15.7,18.8,23.2
		c0,14.7-13.3,23.4-28.7,25.4c3.8,0.2,8.9,0.6,15.1,2.9c10.7,4.1,17.9,12.2,17.9,24.5c0,8.3-2.8,15.9-10.7,21.7
		c-10.1,7.3-21.7,7.3-37.6,7.3H0.7V105z M29.9,2.9v47.4l10.9-0.2c14.4,0,25.7-3.2,25.7-23.5C66.4,3.2,51,3.1,35.2,2.9
		C35.2,2.9,29.9,2.9,29.9,2.9z M36.6,105c10.7-0.2,15.1-0.2,19.1-1.4c12.7-3.8,13.5-17.6,13.5-24.3c0-12.4-2.8-22-15.9-25.1
		c-4.4-1.1-4.9-1.1-23.4-1.1V105H36.6z"/>
	<path fill="#231F20" d="M150.3,105v2.9h-44.5V105h14.7V2.9h-14.7V0h42.3C160,0,171.4,0,180,6.7c4.4,3.4,8.7,9.2,8.7,18
		c0,6.7-2.6,12.8-8.4,17.7c-8.9,7.3-21.1,8.3-25.2,8.6c7.6,0.9,15.1,3.4,20.8,8.6c7.2,6.6,9.2,14.5,9.2,23.8c0,11.5,0,13.8,0.6,15.7
		c1.2,4.1,4.4,6,7.6,6c2.6,0,4.6-1.1,6.4-2.1l1.1,2.8c-2.1,1.4-5.2,3.1-11.2,3.1c-7.5,0-12.1-3.2-14.5-5.7
		c-6.9-6.4-7.2-15.4-7.3-23.8V76c0-7,0-18.5-10.9-22.2c-5.4-1.8-10.2-1.8-21.1-1.5V105H150.3z M135.8,3.2v45.6h6.6
		c6.6,0,15.7,0,21.6-3.7c6-4,7.9-11.6,7.9-18.8c0-4.9-1.2-11.8-4.3-15.7c-5.7-7.5-16.4-7.3-25.2-7.3L135.8,3.2L135.8,3.2z"/>
	<path fill="#231F20" d="M97.5,139.2H85.7v73.7c0,5-0.2,13.5-4.7,20.5c-7.8,12.4-21.4,12.7-28.1,12.7c-11.2,0-22.5-2.3-29.7-10.5
		c-7.2-8.1-7.3-18.5-7.5-27.1v-69.2H1.3v-2.9h43.9v2.9H30.4v72.5c0,6.9,0,15,4.7,21.6c4,5.3,11.6,9.5,21.1,9.5
		c11.8,0,18.2-6.4,20.6-9.9c5.3-7.3,5.3-16.5,5.3-24.3v-69.3H68.7v-2.9h28.7L97.5,139.2L97.5,139.2z"/>
	<path fill="#231F20" d="M195.5,139.2v105h-2.6l-48.8-74.4c-11.5-17.4-17-25.7-19.1-29.4v100.9h14.7v2.9h-32.4v-2.9h13.9V139.2
		h-13.9v-2.9h34.1l32,49.1c2.9,4.4,5.8,8.7,8.6,13.3l9.9,15.6v-75.1H178v-2.9h29.8v2.9H195.5z"/>
	<path fill="#231F20" d="M77.3,300.6c-1.8-7.5-5.5-14.7-11.5-19.7c-5-4.1-11.6-6.4-18.7-6.4c-2.1,0-5.3,0.2-9.3,1.4
		c-4.3,1.4-11.5,4.6-15.3,14.7c-2.3,6.4-3.2,19.7-3.2,39.7c0,22.6,0,32.9,7.8,41c4.4,4.7,11.6,7.6,19.3,7.6c17.7,0,26-15,27.1-17.3
		c0.9-1.5,4.3-9.5,5.2-11.2h2.6l-0.9,30.1H78l-5.3-8.3c-8.1,6.4-16.8,10.1-26.9,10.1c-22.5,0-45.6-21.6-45.6-54.6
		c0-36.8,25.4-57,47.2-57c11.2,0,18.2,4.6,25.7,9.5l4.7-7.6H80v28L77.3,300.6L77.3,300.6z"/>
	<path fill="#231F20" d="M172.4,327.2h-44.5v50.4h14.5v2.9H97.8v-2.9h14.1V275.5H97.8v-2.9h44.6v2.9h-14.5v47.8h44.5v-47.8h-14.5
		v-2.9h44.5v2.9h-14.2v102.1h14.2v2.9h-44.5v-2.9h14.5L172.4,327.2L172.4,327.2z"/>
</g>
<g>
	<path fill="#231F20" d="M12.4,458.1c0-0.6,0.4-1,0.8-1c0.4,0,0.7,0.4,0.7,0.6c0,0.4-0.2,0.6-0.5,0.8c0.3,0.5,1.2,1,2.6,1
		c1.3,0,2.4-0.9,2.4-2.1c0-1-0.8-1.6-1.8-2.2c-1.3-0.8-2.5-1.6-2.5-3c0-1.5,1.4-2.8,3.3-2.8c1.6,0,3.1,1,3.1,2
		c0,0.6-0.4,0.9-0.8,0.9c-0.4,0-0.7-0.3-0.7-0.7c0-0.2,0.1-0.5,0.5-0.7c-0.3-0.4-1-0.8-2.1-0.8c-1.3,0-2.3,0.8-2.3,1.9
		c0,1,0.8,1.5,2,2.3c1.2,0.7,2.3,1.5,2.3,2.9c0,1.7-1.5,2.9-3.4,2.9C13.9,460.4,12.4,459.1,12.4,458.1z"/>
	<path fill="#231F20" d="M23.5,453.5l-1.1,4.3c-0.1,0.2-0.1,0.5-0.1,0.8c0,0.5,0.4,1,1.1,1c1,0,2.3-1.1,2.7-2.9l0.8-3.2h0.8l-1.3,5
		c-0.1,0.3-0.1,0.5-0.1,0.6c0,0.3,0.2,0.5,0.5,0.5c0.4,0,0.6-0.3,0.9-1.1l0.5,0.2c-0.3,0.9-0.8,1.5-1.5,1.5c-0.7,0-1.2-0.4-1.2-1.1
		c0-0.2,0-0.4,0.1-0.6c-0.6,1-1.4,1.7-2.4,1.7c-1.1,0-1.8-0.7-1.8-1.6c0-0.3,0.1-0.7,0.1-0.9l0.9-3.5h-1.3l0.2-0.7H23.5z"/>
	<path fill="#231F20" d="M34.1,459.2c0-0.2,0.1-0.5,0.1-0.7l0.7-2.4c0.1-0.4,0.2-0.6,0.2-0.9c0-0.6-0.5-1.1-1.2-1.1
		c-1,0-2.3,1-2.7,2.9l-0.8,3.2h-0.8l1.5-6h-1.3l0.2-0.7H32l-0.4,1.6c0.7-1.1,1.5-1.7,2.4-1.7c1.1,0,1.9,0.8,1.9,1.7
		c0,0.3-0.1,0.7-0.2,1.1l-0.7,2.3c-0.1,0.2-0.1,0.5-0.1,0.7c0,0.3,0.2,0.5,0.5,0.5c0.4,0,0.6-0.3,0.9-1.1l0.5,0.2
		c-0.3,0.9-0.8,1.5-1.5,1.5C34.6,460.3,34.1,459.8,34.1,459.2z"/>
	<path fill="#231F20" d="M41.5,453.4c1.2,0,2.1,0.6,2.3,1.7l1.4-5.9h-1.3l0.2-0.7h2.1l-2.3,10c-0.1,0.3-0.1,0.5-0.1,0.6
		c0,0.3,0.2,0.5,0.5,0.5c0.4,0,0.6-0.3,0.9-1.1l0.5,0.2c-0.3,0.9-0.8,1.5-1.5,1.5c-0.7,0-1.2-0.4-1.2-1.1c0-0.1,0-0.1,0-0.2
		c-0.6,0.8-1.4,1.4-2.4,1.4c-1.5,0-2.5-1.1-2.5-2.8C38,455.2,39.7,453.4,41.5,453.4z M43.5,456.2c0-1.2-0.7-2-1.9-2
		c-1.6,0-2.7,1.7-2.7,3.4c0,1.2,0.7,2.1,1.8,2.1C42.4,459.6,43.5,457.7,43.5,456.2z"/>
	<path fill="#231F20" d="M46.7,457.6c0-2.3,1.7-4.2,3.6-4.2c1.2,0,2,0.7,2.2,1.7l0.4-1.7h0.8l-1.2,5.1c-0.1,0.3-0.1,0.5-0.1,0.6
		c0,0.3,0.2,0.5,0.5,0.5c0.4,0,0.6-0.3,0.9-1.1l0.5,0.2c-0.3,0.9-0.8,1.5-1.5,1.5c-0.7,0-1.2-0.4-1.2-1.1V459
		c-0.6,0.8-1.4,1.4-2.4,1.4C47.7,460.3,46.7,459.3,46.7,457.6z M52.1,456.1c0-1.2-0.6-2-1.9-2c-1.6,0-2.7,1.7-2.7,3.4
		c0,1.2,0.6,2,1.8,2C51,459.6,52.1,457.6,52.1,456.1z"/>
	<path fill="#231F20" d="M53.5,462.6c0-0.4,0.3-0.7,0.7-0.7s0.6,0.3,0.7,0.7h0.1c0.4,0,1.2-0.6,2.7-2.4l-1.2-6h-1.2l0.2-0.7h1.8
		l1.1,5.9c1.3-1.7,2.6-3.5,2.8-4.5c-0.3-0.1-0.7-0.4-0.7-0.8c0-0.4,0.3-0.7,0.7-0.7c0.4,0,0.8,0.3,0.8,0.9c0,1.2-1,2.7-3.4,5.9
		c-2,2.6-3.1,3.2-4,3.2C54,463.4,53.5,463.1,53.5,462.6z"/>
	<path fill="#231F20" d="M63,459.5c-0.2-0.2-0.4-0.5-0.4-0.8c0-0.4,0.3-0.8,0.7-0.8s0.6,0.3,0.6,0.6c0,0.2-0.1,0.4-0.3,0.6
		c0.1,0.1,0.2,0.1,0.3,0.2c0.3,0.2,0.9,0.4,1.5,0.4c0.8,0,1.4-0.4,1.4-1.1s-0.6-1-1.4-1.4c-1-0.5-1.9-1-1.9-1.9
		c0-1.1,0.9-1.9,2.3-1.9c0.8,0,1.6,0.3,2,0.7c0.2,0.2,0.4,0.5,0.4,0.8c0,0.4-0.3,0.7-0.6,0.7c-0.4,0-0.6-0.2-0.6-0.6
		c0-0.2,0.1-0.4,0.2-0.6c0,0-0.1-0.1-0.3-0.2c-0.2-0.1-0.7-0.2-1.1-0.2c-0.9,0-1.4,0.5-1.4,1c0,0.6,0.6,0.9,1.4,1.3
		c1,0.5,1.8,1,1.8,2c0,1.3-1.1,1.9-2.3,1.9C64.4,460.3,63.5,460,63,459.5z"/>
	<path fill="#231F20" d="M72.6,458.8h1.9l1.2-5.2l-1.7,0.4l-0.1-1.5l3-0.8l0.8,0.4l-1.5,6.7h1.9l-0.3,1.4h-5.5L72.6,458.8z"/>
	<path fill="#231F20" d="M79.9,456.5c0-2.4,1.9-4.8,4.5-4.8c2.4,0,3.7,1.7,3.7,3.8c0,2.4-1.9,4.8-4.5,4.8
		C81.2,460.3,79.9,458.6,79.9,456.5z M86.3,455.5c0-1.4-0.8-2.4-1.9-2.4c-1.5,0-2.7,1.6-2.7,3.4c0,1.4,0.8,2.4,1.9,2.4
		C85.2,458.9,86.3,457.3,86.3,455.5z"/>
	<path fill="#231F20" d="M89.3,459.1c0-0.7,0.6-1.3,1.3-1.3c0.7,0,1.3,0.6,1.3,1.3s-0.6,1.3-1.3,1.3
		C89.9,460.3,89.3,459.8,89.3,459.1z M90.2,454.8c0-0.7,0.6-1.3,1.3-1.3c0.7,0,1.3,0.6,1.3,1.3s-0.6,1.3-1.3,1.3
		C90.8,456.1,90.2,455.5,90.2,454.8z"/>
	<path fill="#231F20" d="M94,456.5c0-2.4,1.9-4.8,4.5-4.8c2.4,0,3.7,1.7,3.7,3.8c0,2.4-1.9,4.8-4.5,4.8
		C95.4,460.3,94,458.6,94,456.5z M100.4,455.5c0-1.4-0.8-2.4-1.9-2.4c-1.5,0-2.7,1.6-2.7,3.4c0,1.4,0.8,2.4,1.9,2.4
		C99.3,458.9,100.4,457.3,100.4,455.5z"/>
	<path fill="#231F20" d="M103.5,456.5c0-2.4,1.9-4.8,4.5-4.8c2.4,0,3.7,1.7,3.7,3.8c0,2.4-1.9,4.8-4.5,4.8
		C104.9,460.3,103.5,458.6,103.5,456.5z M109.9,455.5c0-1.4-0.8-2.4-1.9-2.4c-1.5,0-2.7,1.6-2.7,3.4c0,1.4,0.8,2.4,1.9,2.4
		C108.8,458.9,109.9,457.3,109.9,455.5z"/>
	<path fill="#231F20" d="M112.7,457.6c0-2.4,1.6-4.5,3.6-4.5c0.9,0,1.7,0.8,2,1.6l0.5-1.4h1.6l-1.2,4.8c-0.1,0.3-0.1,0.6-0.1,0.8
		c0,0.3,0.1,0.4,0.4,0.4c0.2,0,0.5-0.2,0.9-1.2l0.7,0.3c-0.5,1.6-1.4,2.1-2.1,2.1c-0.9,0-1.4-0.6-1.4-1.6c-0.6,0.9-1.4,1.6-2.5,1.6
		C113.6,460.3,112.7,459.3,112.7,457.6z M118,456.1c0-0.9-0.4-1.5-1.4-1.5c-1.2,0-2.1,1.3-2.1,2.7c0,0.8,0.4,1.5,1.3,1.5
		C116.9,458.9,118,457.6,118,456.1z"/>
	<path fill="#231F20" d="M123.4,454.7h-1.3l0.4-1.5h2.7l-0.4,1.6c0.5-0.9,1.3-1.7,2.2-1.7c1,0,1.6,0.7,1.8,1.7
		c0.6-1.1,1.5-1.7,2.3-1.7c1,0,1.8,0.7,1.8,2.1c0,0.4,0,0.7-0.2,1.2l-0.5,1.8c0,0.2-0.1,0.4-0.1,0.5c0,0.3,0.1,0.5,0.4,0.5
		c0.2,0,0.5-0.2,0.9-1.2l0.7,0.3c-0.4,1.5-1.2,2.1-2.1,2.1c-1.1,0-1.6-0.7-1.6-1.5c0-0.3,0-0.5,0.1-0.8l0.5-1.8
		c0.1-0.3,0.1-0.5,0.1-0.7c0-0.6-0.4-1-0.9-1c-0.7,0-1.2,0.6-1.5,1.7l-1,4H126l1-4c0.1-0.3,0.1-0.6,0.1-0.8c0-0.5-0.4-0.9-0.9-0.9
		c-0.7,0-1.2,0.6-1.5,1.7l-1,4H122L123.4,454.7z"/>
	<path fill="#231F20" d="M135.7,454.8h4.6l-0.4,1.8h-4.6L135.7,454.8z"/>
	<path fill="#231F20" d="M147.9,458h1.6l-0.3,1.4h-1.6l-0.6,2.7h-1.7l0.6-2.7h-4.7l-0.2-0.9l7-7.1l1.1,1l-5.4,5.5h2.6l0.4-1.8
		l1.9-0.7L147.9,458z"/>
	<path fill="#231F20" d="M150.9,459.1c0-0.7,0.6-1.3,1.3-1.3s1.3,0.6,1.3,1.3s-0.6,1.3-1.3,1.3S150.9,459.8,150.9,459.1z
		 M151.9,454.8c0-0.7,0.6-1.3,1.3-1.3s1.3,0.6,1.3,1.3s-0.6,1.3-1.3,1.3S151.9,455.5,151.9,454.8z"/>
	<path fill="#231F20" d="M155.7,456.5c0-2.4,1.9-4.8,4.5-4.8c2.4,0,3.7,1.7,3.7,3.8c0,2.4-1.9,4.8-4.5,4.8
		C157,460.3,155.7,458.6,155.7,456.5z M162.1,455.5c0-1.4-0.8-2.4-1.9-2.4c-1.5,0-2.7,1.6-2.7,3.4c0,1.4,0.8,2.4,1.9,2.4
		C161,458.9,162.1,457.3,162.1,455.5z"/>
	<path fill="#231F20" d="M165.2,456.5c0-2.4,1.9-4.8,4.5-4.8c2.4,0,3.7,1.7,3.7,3.8c0,2.4-1.9,4.8-4.5,4.8
		C166.5,460.3,165.2,458.6,165.2,456.5z M171.6,455.5c0-1.4-0.8-2.4-1.9-2.4c-1.5,0-2.7,1.6-2.7,3.4c0,1.4,0.8,2.4,1.9,2.4
		C170.4,458.9,171.6,457.3,171.6,455.5z"/>
	<path fill="#231F20" d="M173,461.9h1l1.7-7.2h-1.3l0.4-1.5h2.8l-0.4,1.6c0.6-0.9,1.5-1.7,2.6-1.7c1.6,0,2.4,1.1,2.4,2.7
		c0,2.4-1.6,4.5-3.7,4.5c-1,0-1.7-0.7-2-1.5l-0.7,3.1h1.2l-0.4,1.4h-4L173,461.9z M180.3,456.1c0-0.8-0.5-1.5-1.3-1.5
		c-1.2,0-2.3,1.2-2.3,2.7c0,0.9,0.5,1.5,1.4,1.5C179.4,458.8,180.3,457.5,180.3,456.1z"/>
	<path fill="#231F20" d="M184.7,454.7h-1.3l0.4-1.5h2.7l-0.4,1.6c0.5-0.9,1.3-1.7,2.2-1.7c1,0,1.6,0.7,1.8,1.7
		c0.6-1.1,1.5-1.7,2.3-1.7c1,0,1.8,0.7,1.8,2.1c0,0.4,0,0.7-0.2,1.2l-0.5,1.8c0,0.2-0.1,0.4-0.1,0.5c0,0.3,0.1,0.5,0.4,0.5
		c0.2,0,0.5-0.2,0.9-1.2l0.7,0.3c-0.4,1.5-1.2,2.1-2.1,2.1c-1.1,0-1.6-0.7-1.6-1.5c0-0.3,0-0.5,0.1-0.8l0.5-1.8
		c0.1-0.3,0.1-0.5,0.1-0.7c0-0.6-0.4-1-0.9-1c-0.7,0-1.2,0.6-1.5,1.7l-1,4h-1.8l1-4c0.1-0.3,0.1-0.6,0.1-0.8c0-0.5-0.4-0.9-0.9-0.9
		c-0.7,0-1.2,0.6-1.5,1.7l-1,4h-1.8L184.7,454.7z"/>
</g>
</svg>
