<?xml version="1.0" encoding="utf-8"?>
<!-- Generator: Adobe Illustrator 17.1.0, SVG Export Plug-In . SVG Version: 6.00 Build 0)  -->
<!DOCTYPE svg PUBLIC "-//W3C//DTD SVG 1.1//EN" "http://www.w3.org/Graphics/SVG/1.1/DTD/svg11.dtd">
<svg version="1.1" id="Layer_1" xmlns="http://www.w3.org/2000/svg" xmlns:xlink="http://www.w3.org/1999/xlink" x="0px" y="0px"
	 viewBox="0 70.8 180 38.5" enable-background="new 0 70.8 180 38.5" xml:space="preserve">
<polygon fill="#FDF6E0" points="109.7,106 0,106 0,73.9 109.3,73.9 119.1,90 "/>
<line fill="none" stroke="#000000" stroke-miterlimit="10" x1="0" y1="71.5" x2="180" y2="71.5"/>
<line fill="none" stroke="#000000" stroke-miterlimit="10" x1="0" y1="73.9" x2="180" y2="73.9"/>
<line fill="none" stroke="#000000" stroke-miterlimit="10" x1="0" y1="106.2" x2="180" y2="106.2"/>
<line fill="none" stroke="#000000" stroke-miterlimit="10" x1="0" y1="108.7" x2="180" y2="108.7"/>
<polyline fill="none" stroke="#000000" stroke-miterlimit="10" points="109,73.9 119,90.2 109.3,106 "/>
<polyline fill="none" stroke="#000000" stroke-miterlimit="10" points="112,73.9 121.9,90.2 112.2,106 "/>
<g>
	<path fill="#231F20" d="M9.2,87.2h1l1.4-6.4h-1.1l0.2-1H17L16.5,82h-1.1l0.3-1.2h-2.8l-0.6,2.6h2.6l-0.2,1H12l-0.6,2.8h2.8l0.3-1.2
		h1.1l-0.5,2.2H8.9L9.2,87.2z"/>
	<path fill="#231F20" d="M20.5,87.2c0-0.2,0-0.4,0.1-0.6l0.5-1.7c0.1-0.2,0.1-0.4,0.1-0.6c0-0.5-0.3-0.8-0.8-0.8
		c-0.7,0-1.3,0.6-1.6,1.7l-0.8,3h-1.1l1.2-4.6h-1l0.2-1h2L18.9,84c0.4-0.8,1.2-1.4,1.9-1.4c0.8,0,1.5,0.6,1.5,1.6
		c0,0.3,0,0.6-0.2,0.9l-0.5,1.6c0,0.2-0.1,0.4-0.1,0.4c0,0.2,0.1,0.4,0.4,0.4s0.5-0.2,0.7-0.9l0.5,0.2c-0.3,1-0.8,1.5-1.5,1.5
		C20.9,88.4,20.5,87.9,20.5,87.2z"/>
	<path fill="#231F20" d="M26.8,82.6c0.8,0,1.5,0.6,1.7,1.3l0.9-4.1h-1l0.2-1h2.1l-1.8,7.8c0,0.2-0.1,0.4-0.1,0.6
		c0,0.2,0.1,0.4,0.3,0.4s0.5-0.2,0.7-0.9l0.5,0.2c-0.3,1.1-0.9,1.5-1.5,1.5c-0.7,0-1.1-0.4-1.1-1.1v0c-0.5,0.7-1.1,1.2-2,1.2
		c-1.1,0-1.9-0.9-1.9-2.2C23.9,84.2,25.3,82.6,26.8,82.6z M28.3,85c0-0.8-0.4-1.4-1.3-1.4c-1.1,0-1.9,1.2-1.9,2.4
		c0,0.8,0.4,1.4,1.2,1.4C27.4,87.4,28.3,86.2,28.3,85z"/>
	<path fill="#231F20" d="M31.4,87.2c0-0.2,0-0.4,0.1-0.6l1.6-6.9h-1l0.2-1h2.1l-1.8,7.8c0,0.2-0.1,0.4-0.1,0.6
		c0,0.3,0.1,0.4,0.3,0.4c0.2,0,0.5-0.2,0.8-0.9l0.5,0.2c-0.3,1.1-0.9,1.5-1.5,1.5C31.8,88.4,31.4,87.9,31.4,87.2z"/>
	<path fill="#231F20" d="M36,85.8V86c0,0.8,0.7,1.4,1.7,1.4c0.6,0,1.1-0.1,1.8-0.5l-0.2,1c-0.6,0.3-1,0.4-1.8,0.4
		c-1.3,0-2.5-0.8-2.5-2.4c0-1.9,1.4-3.4,3-3.4c1.4,0,2.2,0.8,2.2,2.1c0,0.4-0.1,0.7-0.2,1.2L36,85.8L36,85.8z M36.2,85h2.9
		c0-0.2,0.1-0.3,0.1-0.5c0-0.6-0.4-1-1.2-1C37.2,83.5,36.5,84.1,36.2,85z"/>
	<path fill="#231F20" d="M41.2,87.6c-0.2-0.2-0.4-0.5-0.4-0.7c0-0.4,0.3-0.7,0.6-0.7c0.4,0,0.6,0.3,0.6,0.6c0,0.1,0,0.3-0.1,0.4
		c0,0,0.1,0.1,0.2,0.2c0.2,0.1,0.6,0.2,1,0.2c0.6,0,1.1-0.2,1.1-0.7c0-0.5-0.6-0.7-1.2-1c-0.8-0.4-1.5-0.7-1.5-1.6
		c0-0.9,0.8-1.6,2.1-1.6c0.8,0,1.4,0.2,1.8,0.6c0.2,0.2,0.3,0.5,0.3,0.7c0,0.4-0.3,0.7-0.6,0.7c-0.4,0-0.6-0.3-0.6-0.6
		c0-0.1,0-0.2,0.1-0.4c0,0-0.1-0.1-0.2-0.1c-0.2-0.1-0.5-0.1-0.8-0.1c-0.6,0-1,0.2-1,0.6c0,0.4,0.6,0.7,1.2,1
		c0.8,0.4,1.5,0.8,1.5,1.6c0,1.1-0.9,1.7-2.2,1.7C42.4,88.4,41.7,88.1,41.2,87.6z"/>
	<path fill="#231F20" d="M46.8,87.6c-0.2-0.2-0.4-0.5-0.4-0.7c0-0.4,0.3-0.7,0.6-0.7s0.6,0.3,0.6,0.6c0,0.1,0,0.3-0.1,0.4
		c0,0,0.1,0.1,0.2,0.2c0.2,0.1,0.6,0.2,1,0.2c0.6,0,1.1-0.2,1.1-0.7c0-0.5-0.6-0.7-1.2-1c-0.8-0.4-1.5-0.7-1.5-1.6
		c0-0.9,0.8-1.6,2.1-1.6c0.8,0,1.4,0.2,1.8,0.6c0.2,0.2,0.3,0.5,0.3,0.7c0,0.4-0.3,0.7-0.6,0.7s-0.6-0.3-0.6-0.6
		c0-0.1,0-0.2,0.1-0.4c0,0-0.1-0.1-0.2-0.1c-0.2-0.1-0.5-0.1-0.8-0.1c-0.6,0-1,0.2-1,0.6c0,0.4,0.6,0.7,1.2,1
		c0.8,0.4,1.5,0.8,1.5,1.6c0,1.1-0.9,1.7-2.2,1.7C48,88.4,47.2,88.1,46.8,87.6z"/>
	<path fill="#231F20" d="M54.6,87.2h1l1.8-6.4h-1.1l0.2-1h2l1.5,5.3l3.8-5.3H66l-0.2,1h-1l-1.2,6.4h1.1l-0.2,1h-3.2l0.2-1h1l1-5.3
		L59.8,87h-0.2l-1.4-5.1l-1.4,5.3h1.2l-0.2,1h-3.2L54.6,87.2z"/>
	<path fill="#231F20" d="M66.3,87.2c0-0.2,0-0.4,0.1-0.6l0.8-3h-1l0.2-1h2.2l-1,3.9c-0.1,0.2-0.1,0.4-0.1,0.6c0,0.2,0.1,0.4,0.3,0.4
		c0.2,0,0.5-0.2,0.8-0.9l0.5,0.2c-0.3,1.1-0.9,1.5-1.6,1.5S66.3,87.9,66.3,87.2z M67.4,81c0-0.4,0.3-0.8,0.8-0.8
		c0.4,0,0.8,0.3,0.8,0.8c0,0.4-0.4,0.8-0.8,0.8C67.7,81.8,67.4,81.4,67.4,81z"/>
	<path fill="#231F20" d="M71.1,83.7h-1l0.2-1h2L71.9,84c0.4-0.8,1.1-1.4,1.8-1.4c0.8,0,1.3,0.5,1.4,1.4c0.5-0.8,1.2-1.4,1.9-1.4
		c0.8,0,1.4,0.6,1.4,1.6c0,0.3,0,0.6-0.2,0.9l-0.5,1.6c0,0.2-0.1,0.4-0.1,0.4c0,0.2,0.1,0.4,0.4,0.4s0.5-0.2,0.7-0.9l0.5,0.2
		c-0.3,1-0.8,1.5-1.5,1.5c-0.8,0-1.2-0.5-1.2-1.1c0-0.2,0-0.4,0.1-0.6l0.5-1.6c0.1-0.2,0.1-0.4,0.1-0.6c0-0.5-0.3-0.8-0.8-0.8
		c-0.6,0-1.2,0.6-1.6,1.8l-0.8,2.9h-1.1l0.8-3.2c0-0.2,0.1-0.5,0.1-0.6c0-0.4-0.3-0.8-0.8-0.8c-0.6,0-1.3,0.6-1.6,1.8L71,88.2h-1.1
		L71.1,83.7z"/>
	<path fill="#231F20" d="M80.2,85.9c0-1.7,1.3-3.3,3.1-3.3c1.6,0,2.5,1.2,2.5,2.5c0,1.7-1.3,3.3-3.1,3.3
		C81.1,88.4,80.2,87.2,80.2,85.9z M84.7,85.1c0-1-0.6-1.5-1.4-1.5c-1.1,0-2,1-2,2.3c0,1,0.6,1.5,1.4,1.5
		C83.8,87.4,84.7,86.4,84.7,85.1z"/>
	<path fill="#231F20" d="M86.8,87.6c-0.2-0.2-0.4-0.5-0.4-0.7c0-0.4,0.3-0.7,0.6-0.7c0.4,0,0.6,0.3,0.6,0.6c0,0.1,0,0.3-0.1,0.4
		c0,0,0.1,0.1,0.2,0.2c0.2,0.1,0.6,0.2,1,0.2c0.6,0,1.1-0.2,1.1-0.7c0-0.5-0.6-0.7-1.2-1c-0.8-0.4-1.5-0.7-1.5-1.6
		c0-0.9,0.8-1.6,2.1-1.6c0.8,0,1.4,0.2,1.8,0.6c0.2,0.2,0.3,0.5,0.3,0.7c0,0.4-0.3,0.7-0.6,0.7c-0.4,0-0.6-0.3-0.6-0.6
		c0-0.1,0-0.2,0.1-0.4c0,0-0.1-0.1-0.2-0.1c-0.2-0.1-0.5-0.1-0.8-0.1c-0.6,0-1,0.2-1,0.6c0,0.4,0.6,0.7,1.2,1
		c0.8,0.4,1.5,0.8,1.5,1.6c0,1.1-0.9,1.7-2.2,1.7C88,88.4,87.2,88.1,86.8,87.6z"/>
	<path fill="#231F20" d="M92.1,86.1c0-1.9,1.3-3.5,2.9-3.5c0.8,0,1.5,0.6,1.6,1.3l0.4-1.2h1l-1,3.9c-0.1,0.2-0.1,0.4-0.1,0.6
		c0,0.2,0.1,0.4,0.3,0.4c0.2,0,0.5-0.2,0.7-0.9l0.5,0.2c-0.3,1.1-0.9,1.5-1.5,1.5c-0.6,0-1.1-0.4-1.1-1.1v-0.1
		c-0.5,0.6-1.2,1.2-2,1.2C92.9,88.4,92.1,87.5,92.1,86.1z M96.5,84.9c0-0.8-0.4-1.4-1.2-1.4c-1.1,0-1.9,1.2-1.9,2.4
		c0,0.8,0.4,1.4,1.2,1.4C95.6,87.4,96.5,86.1,96.5,84.9z"/>
</g>
<g>
	<path fill="#231F20" d="M13.9,96.4c0-2.7,2.2-5.1,4.8-5.1c1.9,0,3,1.2,3,2.1c0,0.6-0.4,1-0.8,1s-0.8-0.3-0.8-0.8
		c0-0.2,0.2-0.5,0.3-0.6c-0.2-0.3-0.8-0.7-1.8-0.7c-2,0-3.6,1.8-3.6,3.9c0,1.7,1,2.7,2.5,2.7c0.9,0,1.8-0.4,2.5-1.1l0.7,0.7
		c-1,1-2,1.5-3.3,1.5C15.6,100.1,13.9,98.7,13.9,96.4z"/>
	<path fill="#231F20" d="M22,97.8c0-1.9,1.3-3.5,2.9-3.5c0.8,0,1.5,0.6,1.6,1.3l0.4-1.2h1l-1,3.9c-0.1,0.2-0.1,0.4-0.1,0.6
		c0,0.2,0.1,0.4,0.3,0.4c0.2,0,0.5-0.2,0.7-0.9l0.5,0.2c-0.3,1.1-0.9,1.5-1.5,1.5c-0.6,0-1.1-0.4-1.1-1.1v-0.1
		c-0.5,0.6-1.2,1.2-2,1.2C22.8,100,22,99.2,22,97.8z M26.3,96.7c0-0.8-0.4-1.4-1.2-1.4c-1.1,0-1.9,1.2-1.9,2.4
		c0,0.8,0.4,1.4,1.2,1.4C25.5,99.1,26.3,97.9,26.3,96.7z"/>
	<path fill="#231F20" d="M30.5,95.3h-1l0.2-1h2l-0.4,1.6c0.7-1.1,1.3-1.6,1.9-1.6c0.4,0,0.8,0.3,0.8,0.8s-0.4,0.8-0.8,0.8
		s-0.7-0.2-0.8-0.6c-0.4,0.2-1.2,1-1.5,2.2l-0.6,2.5h-1.1L30.5,95.3z"/>
	<path fill="#231F20" d="M34.2,97.8c0-1.9,1.3-3.5,2.9-3.5c0.8,0,1.5,0.6,1.6,1.3l0.4-1.2h1l-1,3.9c-0.1,0.2-0.1,0.4-0.1,0.6
		c0,0.2,0.1,0.4,0.3,0.4s0.5-0.2,0.7-0.9l0.5,0.2c-0.3,1.1-0.9,1.5-1.5,1.5c-0.6,0-1.1-0.4-1.1-1.1v-0.1c-0.5,0.6-1.2,1.2-2,1.2
		C35,100,34.2,99.2,34.2,97.8z M38.5,96.7c0-0.8-0.4-1.4-1.2-1.4c-1.1,0-1.9,1.2-1.9,2.4c0,0.8,0.4,1.4,1.2,1.4
		C37.7,99.1,38.5,97.9,38.5,96.7z"/>
	<path fill="#231F20" d="M42.6,95.3h-1l0.2-1h1l0.4-1.5c0.2-0.8,0.5-1.4,0.9-1.8c0.4-0.4,1-0.6,1.6-0.6c0.7,0,1.1,0.4,1.1,0.8
		c0,0.4-0.4,0.7-0.7,0.7c-0.4,0-0.7-0.2-0.7-0.6c-0.2,0-0.4,0.2-0.5,0.2c-0.2,0.2-0.4,0.7-0.6,1.3L44,94.3h1.4l-0.2,1h-1.4l-1,4.6
		h-1.1L42.6,95.3z"/>
	<path fill="#231F20" d="M46.4,97.5v0.2c0,0.8,0.7,1.4,1.7,1.4c0.6,0,1.1-0.1,1.8-0.5l-0.2,1c-0.6,0.3-1,0.4-1.8,0.4
		c-1.3,0-2.5-0.8-2.5-2.4c0-1.9,1.4-3.4,3-3.4c1.4,0,2.2,0.8,2.2,2.1c0,0.4-0.1,0.7-0.2,1.2L46.4,97.5L46.4,97.5z M46.6,96.7h2.9
		c0-0.2,0.1-0.3,0.1-0.5c0-0.6-0.4-1-1.2-1C47.6,95.2,46.9,95.8,46.6,96.7z"/>
	<path fill="#231F20" d="M54,98.9h1l1.5-6.4h-1.1l0.2-1h6.1l-0.5,2.2h-1.1l0.3-1.2h-2.7L57,95.3h2.6l-0.2,1h-2.5l-0.6,2.6h1.2
		l-0.2,1h-3.4L54,98.9z"/>
	<path fill="#231F20" d="M60.8,97.6c0-1.7,1.3-3.3,3.1-3.3c1.6,0,2.5,1.2,2.5,2.5c0,1.7-1.3,3.3-3.1,3.3
		C61.6,100,60.8,98.9,60.8,97.6z M65.3,96.7c0-1-0.6-1.5-1.4-1.5c-1.1,0-2,1-2,2.3c0,1,0.6,1.5,1.4,1.5
		C64.4,99.1,65.3,98.1,65.3,96.7z"/>
	<path fill="#231F20" d="M68.6,95.3h-1l0.2-1h2l-0.4,1.6c0.7-1.1,1.3-1.6,1.9-1.6c0.4,0,0.8,0.3,0.8,0.8s-0.4,0.8-0.8,0.8
		s-0.7-0.2-0.8-0.6c-0.4,0.2-1.2,1-1.5,2.2l-0.6,2.5h-1.1L68.6,95.3z"/>
	<path fill="#231F20" d="M76.7,98.9h1l1.5-6.4h-1.9l-0.3,1.3H76l0.5-2.4h7.1l-0.5,2.4H82l0.3-1.3h-1.8l-1.5,6.4h1.2l-0.2,1h-3.4
		L76.7,98.9z"/>
	<path fill="#231F20" d="M83.5,95.3h-1l0.2-1h1.7l0.2,4.2l2-3.6h0.6l0.8,3.7c0.8-1.2,1.4-2.2,1.5-3C89.3,95.7,89,95.4,89,95
		s0.3-0.8,0.8-0.8c0.5,0,0.8,0.4,0.8,1c0,0.9-0.8,2.5-2.5,4.8h-0.7l-0.7-3.4l-2,3.4H84L83.5,95.3z"/>
	<path fill="#231F20" d="M91.4,97.6c0-1.7,1.3-3.3,3.1-3.3c1.6,0,2.5,1.2,2.5,2.5c0,1.7-1.3,3.3-3.1,3.3
		C92.3,100,91.4,98.9,91.4,97.6z M95.9,96.7c0-1-0.6-1.5-1.4-1.5c-1.1,0-2,1-2,2.3c0,1,0.6,1.5,1.4,1.5C95,99.1,95.9,98.1,95.9,96.7
		z"/>
</g>
<g>
	<path fill="#231F20" d="M134.2,95.6c0.1-0.2,0.5-1.6,0.7-2.4c-1.7-0.5-3-1.6-3-2.9c0-0.8,0.5-1.5,1.3-1.5c0.7,0,1.2,0.6,1.2,1.2
		c0,0.4-0.2,0.7-0.4,0.9c0.2,0.3,0.8,0.6,1.5,0.8l1.2-3.8c-1.5-0.6-3.1-1.5-3.1-3.4c0-1.8,1.8-3.4,4.7-3.4c0.2,0,0.3,0,0.4,0
		l0.5-1.6l1.4,0.4l-0.5,1.5c1.5,0.4,2.6,1.5,2.6,2.6c0,0.9-0.6,1.4-1.3,1.4c-0.7,0-1.2-0.5-1.2-1.2c0-0.3,0.1-0.6,0.4-0.9
		c-0.2-0.2-0.6-0.4-1.1-0.5l-1.1,3.6c1.6,0.7,3.2,1.6,3.2,3.4c0,2-1.8,3.5-4.7,3.5c-0.2,0-0.4,0-0.6,0l-0.8,2.5L134.2,95.6z
		 M137.2,86l1-3.2c-1.6,0-2.5,0.6-2.5,1.6C135.8,85.1,136.4,85.6,137.2,86z M137.8,88.5l-1.1,3.4h0.1c1.6,0,2.7-0.6,2.7-1.7
		C139.5,89.4,138.8,88.9,137.8,88.5z"/>
	<path fill="#231F20" d="M142,92.3c1.1-2.4,3.5-3.8,5.9-4.9c2-0.9,3.6-1.7,3.6-2.9c0-1-1-1.6-2.5-1.6c-1,0-1.9,0.3-2.4,0.8
		c0.2,0.2,0.4,0.5,0.4,0.9c0,0.7-0.6,1.3-1.3,1.3c-0.8,0-1.4-0.6-1.4-1.4c0-1.6,1.9-3.3,4.9-3.3c2.7,0,4.5,1.4,4.5,3.2
		c0,2.2-2.5,3.4-4.9,4.5c-2.4,1.1-3.5,1.8-4.3,3h6.1l0.5-2h1.8l-0.8,3.7h-9.7L142,92.3z"/>
	<path fill="#231F20" d="M154.4,88.2c0-3.6,2.7-7.1,6.5-7.1c3.3,0,5.3,2.5,5.3,5.5c0,3.6-2.7,7.1-6.5,7.1
		C156.3,93.6,154.4,91.2,154.4,88.2z M163.9,86.6c0-2.2-1.3-3.7-3.1-3.7c-2.5,0-4.3,2.5-4.3,5.3c0,2.2,1.3,3.8,3.2,3.8
		C162.1,91.9,163.9,89.4,163.9,86.6z"/>
</g>
<g>
	<path fill="#231F20" d="M137.9,100.2h0.7l0.5-2.2l-0.7,0.2l0-0.4l1-0.3l0.2,0.1l-0.6,2.6h0.7l-0.1,0.4h-1.8L137.9,100.2z"/>
	<path fill="#231F20" d="M140.5,99.3c0-0.9,0.7-1.8,1.6-1.8c0.8,0,1.3,0.6,1.3,1.4c0,0.9-0.7,1.8-1.6,1.8
		C141,100.6,140.5,100,140.5,99.3z M142.9,98.9c0-0.6-0.4-1-0.9-1c-0.7,0-1.2,0.7-1.2,1.4c0,0.6,0.4,1,0.9,1
		C142.4,100.3,142.9,99.6,142.9,98.9z"/>
	<path fill="#231F20" d="M143.8,100.3c0-0.2,0.2-0.4,0.4-0.4c0.2,0,0.4,0.2,0.4,0.4c0,0.2-0.2,0.4-0.4,0.4
		C143.9,100.6,143.8,100.5,143.8,100.3z M144.1,98.7c0-0.2,0.2-0.4,0.4-0.4c0.2,0,0.4,0.2,0.4,0.4c0,0.2-0.2,0.4-0.4,0.4
		C144.3,99.1,144.1,98.9,144.1,98.7z"/>
	<path fill="#231F20" d="M145.3,99.3c0-0.9,0.7-1.8,1.6-1.8c0.8,0,1.3,0.6,1.3,1.4c0,0.9-0.7,1.8-1.6,1.8
		C145.7,100.6,145.3,100,145.3,99.3z M147.7,98.9c0-0.6-0.4-1-0.9-1c-0.7,0-1.2,0.7-1.2,1.4c0,0.6,0.4,1,0.9,1
		C147.2,100.3,147.7,99.6,147.7,98.9z"/>
	<path fill="#231F20" d="M148.7,99.3c0-0.9,0.7-1.8,1.6-1.8c0.8,0,1.3,0.6,1.3,1.4c0,0.9-0.7,1.8-1.6,1.8
		C149.2,100.6,148.7,100,148.7,99.3z M151.1,98.9c0-0.6-0.4-1-0.9-1c-0.7,0-1.2,0.7-1.2,1.4c0,0.6,0.4,1,0.9,1
		C150.6,100.3,151.1,99.6,151.1,98.9z"/>
	<path fill="#231F20" d="M152.1,98.7h1.3l-0.1,0.4H152L152.1,98.7z"/>
	<path fill="#231F20" d="M153.5,100.3c0.3-0.6,0.9-1,1.5-1.3c0.5-0.2,0.9-0.5,0.9-0.8c0-0.2-0.2-0.4-0.7-0.4c-0.3,0-0.5,0.1-0.6,0.2
		c0.1,0,0.1,0.1,0.1,0.2c0,0.2-0.1,0.3-0.3,0.3c-0.2,0-0.3-0.1-0.3-0.3c0-0.4,0.5-0.8,1.2-0.8c0.7,0,1.1,0.4,1.1,0.8
		c0,0.5-0.6,0.8-1.2,1.1c-0.7,0.3-0.9,0.5-1.1,0.8h1.6l0.1-0.5h0.4l-0.2,0.9h-2.3L153.5,100.3z"/>
	<path fill="#231F20" d="M156.7,100.3c0-0.2,0.2-0.4,0.4-0.4c0.2,0,0.4,0.2,0.4,0.4c0,0.2-0.2,0.4-0.4,0.4
		C156.9,100.6,156.7,100.5,156.7,100.3z M157.1,98.7c0-0.2,0.2-0.4,0.4-0.4s0.4,0.2,0.4,0.4c0,0.2-0.2,0.4-0.4,0.4
		S157.1,98.9,157.1,98.7z"/>
	<path fill="#231F20" d="M158.2,99.3c0-0.9,0.7-1.8,1.6-1.8c0.8,0,1.3,0.6,1.3,1.4c0,0.9-0.7,1.8-1.6,1.8
		C158.7,100.6,158.2,100,158.2,99.3z M160.7,98.9c0-0.6-0.4-1-0.9-1c-0.7,0-1.2,0.7-1.2,1.4c0,0.6,0.4,1,0.9,1
		C160.2,100.3,160.7,99.6,160.7,98.9z"/>
	<path fill="#231F20" d="M161.6,99.3c0-0.9,0.7-1.8,1.6-1.8c0.8,0,1.3,0.6,1.3,1.4c0,0.9-0.7,1.8-1.6,1.8
		C162.1,100.6,161.6,100,161.6,99.3z M164.1,98.9c0-0.6-0.4-1-0.9-1c-0.7,0-1.2,0.7-1.2,1.4c0,0.6,0.4,1,0.9,1
		C163.6,100.3,164.1,99.6,164.1,98.9z"/>
</g>
</svg>
